<mxfile host="app.diagrams.net" modified="2022-11-21T16:49:06.643Z" agent="5.0 (Windows NT 10.0; Win64; x64) AppleWebKit/537.36 (KHTML, like Gecko) Chrome/107.0.0.0 Safari/537.36" etag="FVHbbzrvU9se1crtWoYK" version="20.5.3" type="github">
  <diagram id="K4SE3sof4oe-6UEujn0E" name="Trang-1">
    <mxGraphModel dx="1865" dy="1786" grid="1" gridSize="10" guides="1" tooltips="1" connect="1" arrows="1" fold="1" page="1" pageScale="1" pageWidth="827" pageHeight="1169" math="0" shadow="0">
      <root>
        <mxCell id="0" />
        <mxCell id="1" parent="0" />
        <mxCell id="uzTgU-yGPW_uOpuA6TY6-1" value="student" style="rounded=1;whiteSpace=wrap;html=1;fontSize=15;" parent="1" vertex="1">
          <mxGeometry x="470" y="90" width="120" height="60" as="geometry" />
        </mxCell>
        <mxCell id="uzTgU-yGPW_uOpuA6TY6-2" value="id" style="ellipse;whiteSpace=wrap;html=1;fontSize=15;" parent="1" vertex="1">
          <mxGeometry x="300" y="30" width="120" height="60" as="geometry" />
        </mxCell>
        <mxCell id="uzTgU-yGPW_uOpuA6TY6-3" value="name" style="ellipse;whiteSpace=wrap;html=1;fontSize=15;" parent="1" vertex="1">
          <mxGeometry x="420" y="-10" width="120" height="60" as="geometry" />
        </mxCell>
        <mxCell id="uzTgU-yGPW_uOpuA6TY6-4" value="student_card_id" style="ellipse;whiteSpace=wrap;html=1;fontSize=15;" parent="1" vertex="1">
          <mxGeometry x="300" y="110" width="120" height="60" as="geometry" />
        </mxCell>
        <mxCell id="uzTgU-yGPW_uOpuA6TY6-6" value="password" style="ellipse;whiteSpace=wrap;html=1;fontSize=15;" parent="1" vertex="1">
          <mxGeometry x="500" y="-80" width="120" height="60" as="geometry" />
        </mxCell>
        <mxCell id="uzTgU-yGPW_uOpuA6TY6-8" value="role" style="ellipse;whiteSpace=wrap;html=1;fontSize=15;" parent="1" vertex="1">
          <mxGeometry x="350" y="210" width="120" height="60" as="geometry" />
        </mxCell>
        <mxCell id="uzTgU-yGPW_uOpuA6TY6-9" value="birthday" style="ellipse;whiteSpace=wrap;html=1;fontSize=15;" parent="1" vertex="1">
          <mxGeometry x="800" y="-415" width="120" height="60" as="geometry" />
        </mxCell>
        <mxCell id="uzTgU-yGPW_uOpuA6TY6-10" value="gender" style="ellipse;whiteSpace=wrap;html=1;fontSize=15;" parent="1" vertex="1">
          <mxGeometry x="760" y="-185" width="120" height="60" as="geometry" />
        </mxCell>
        <mxCell id="uzTgU-yGPW_uOpuA6TY6-11" value="ethnic" style="ellipse;whiteSpace=wrap;html=1;fontSize=15;" parent="1" vertex="1">
          <mxGeometry x="1010" y="-195" width="120" height="60" as="geometry" />
        </mxCell>
        <mxCell id="uzTgU-yGPW_uOpuA6TY6-12" value="religion" style="ellipse;whiteSpace=wrap;html=1;fontSize=15;" parent="1" vertex="1">
          <mxGeometry x="920" y="-525" width="120" height="60" as="geometry" />
        </mxCell>
        <mxCell id="uzTgU-yGPW_uOpuA6TY6-13" value="birthplace" style="ellipse;whiteSpace=wrap;html=1;fontSize=15;" parent="1" vertex="1">
          <mxGeometry x="890" y="-155" width="120" height="60" as="geometry" />
        </mxCell>
        <mxCell id="uzTgU-yGPW_uOpuA6TY6-14" value="phone" style="ellipse;whiteSpace=wrap;html=1;fontSize=15;" parent="1" vertex="1">
          <mxGeometry x="1020" y="-465" width="120" height="60" as="geometry" />
        </mxCell>
        <mxCell id="uzTgU-yGPW_uOpuA6TY6-15" value="identify_card" style="ellipse;whiteSpace=wrap;html=1;fontSize=15;" parent="1" vertex="1">
          <mxGeometry x="1110" y="-135" width="120" height="60" as="geometry" />
        </mxCell>
        <mxCell id="uzTgU-yGPW_uOpuA6TY6-16" value="address" style="ellipse;whiteSpace=wrap;html=1;fontSize=15;" parent="1" vertex="1">
          <mxGeometry x="1180" y="-495" width="120" height="60" as="geometry" />
        </mxCell>
        <mxCell id="uzTgU-yGPW_uOpuA6TY6-17" value="area" style="ellipse;whiteSpace=wrap;html=1;fontSize=15;" parent="1" vertex="1">
          <mxGeometry x="1180" y="-425" width="120" height="60" as="geometry" />
        </mxCell>
        <mxCell id="uzTgU-yGPW_uOpuA6TY6-18" value="information" style="whiteSpace=wrap;html=1;fontSize=15;" parent="1" vertex="1">
          <mxGeometry x="960" y="-355" width="120" height="60" as="geometry" />
        </mxCell>
        <mxCell id="uzTgU-yGPW_uOpuA6TY6-19" value="" style="endArrow=none;html=1;rounded=0;fontSize=15;exitX=0;exitY=0;exitDx=0;exitDy=0;entryX=0.948;entryY=0.717;entryDx=0;entryDy=0;entryPerimeter=0;" parent="1" source="uzTgU-yGPW_uOpuA6TY6-18" target="uzTgU-yGPW_uOpuA6TY6-9" edge="1">
          <mxGeometry width="50" height="50" relative="1" as="geometry">
            <mxPoint x="830" y="-385" as="sourcePoint" />
            <mxPoint x="880" y="-435" as="targetPoint" />
          </mxGeometry>
        </mxCell>
        <mxCell id="uzTgU-yGPW_uOpuA6TY6-25" value="" style="endArrow=none;html=1;rounded=0;fontSize=15;entryX=0.549;entryY=1.033;entryDx=0;entryDy=0;entryPerimeter=0;exitX=0.5;exitY=0;exitDx=0;exitDy=0;" parent="1" source="uzTgU-yGPW_uOpuA6TY6-18" target="uzTgU-yGPW_uOpuA6TY6-12" edge="1">
          <mxGeometry width="50" height="50" relative="1" as="geometry">
            <mxPoint x="1040" y="-335" as="sourcePoint" />
            <mxPoint x="1090" y="-385" as="targetPoint" />
          </mxGeometry>
        </mxCell>
        <mxCell id="uzTgU-yGPW_uOpuA6TY6-26" value="" style="endArrow=none;html=1;rounded=0;fontSize=15;entryX=0.429;entryY=1.001;entryDx=0;entryDy=0;entryPerimeter=0;exitX=0.75;exitY=0;exitDx=0;exitDy=0;" parent="1" source="uzTgU-yGPW_uOpuA6TY6-18" target="uzTgU-yGPW_uOpuA6TY6-14" edge="1">
          <mxGeometry width="50" height="50" relative="1" as="geometry">
            <mxPoint x="1000" y="-335" as="sourcePoint" />
            <mxPoint x="985.8799999999999" y="-433.02" as="targetPoint" />
          </mxGeometry>
        </mxCell>
        <mxCell id="uzTgU-yGPW_uOpuA6TY6-27" value="" style="endArrow=none;html=1;rounded=0;fontSize=15;entryX=0.041;entryY=0.72;entryDx=0;entryDy=0;entryPerimeter=0;exitX=1;exitY=0;exitDx=0;exitDy=0;" parent="1" source="uzTgU-yGPW_uOpuA6TY6-18" target="uzTgU-yGPW_uOpuA6TY6-16" edge="1">
          <mxGeometry width="50" height="50" relative="1" as="geometry">
            <mxPoint x="1010" y="-325" as="sourcePoint" />
            <mxPoint x="995.8799999999999" y="-423.02" as="targetPoint" />
          </mxGeometry>
        </mxCell>
        <mxCell id="uzTgU-yGPW_uOpuA6TY6-28" value="" style="endArrow=none;html=1;rounded=0;fontSize=15;entryX=0;entryY=0.5;entryDx=0;entryDy=0;exitX=1;exitY=0.25;exitDx=0;exitDy=0;" parent="1" source="uzTgU-yGPW_uOpuA6TY6-18" target="uzTgU-yGPW_uOpuA6TY6-17" edge="1">
          <mxGeometry width="50" height="50" relative="1" as="geometry">
            <mxPoint x="1020" y="-315" as="sourcePoint" />
            <mxPoint x="1005.8799999999999" y="-413.02" as="targetPoint" />
          </mxGeometry>
        </mxCell>
        <mxCell id="uzTgU-yGPW_uOpuA6TY6-29" value="" style="endArrow=none;html=1;rounded=0;fontSize=15;exitX=1;exitY=1;exitDx=0;exitDy=0;" parent="1" source="uzTgU-yGPW_uOpuA6TY6-18" target="uzTgU-yGPW_uOpuA6TY6-15" edge="1">
          <mxGeometry width="50" height="50" relative="1" as="geometry">
            <mxPoint x="1030" y="-305" as="sourcePoint" />
            <mxPoint x="1015.8799999999999" y="-403.02" as="targetPoint" />
          </mxGeometry>
        </mxCell>
        <mxCell id="uzTgU-yGPW_uOpuA6TY6-30" value="" style="endArrow=none;html=1;rounded=0;fontSize=15;entryX=0.437;entryY=0.002;entryDx=0;entryDy=0;entryPerimeter=0;exitX=0.938;exitY=1.039;exitDx=0;exitDy=0;exitPerimeter=0;" parent="1" source="uzTgU-yGPW_uOpuA6TY6-18" target="uzTgU-yGPW_uOpuA6TY6-11" edge="1">
          <mxGeometry width="50" height="50" relative="1" as="geometry">
            <mxPoint x="1040" y="-295" as="sourcePoint" />
            <mxPoint x="1025.8799999999999" y="-393.02" as="targetPoint" />
          </mxGeometry>
        </mxCell>
        <mxCell id="uzTgU-yGPW_uOpuA6TY6-31" value="" style="endArrow=none;html=1;rounded=0;fontSize=15;entryX=1;entryY=0;entryDx=0;entryDy=0;exitX=0.5;exitY=1;exitDx=0;exitDy=0;" parent="1" source="uzTgU-yGPW_uOpuA6TY6-18" target="uzTgU-yGPW_uOpuA6TY6-13" edge="1">
          <mxGeometry width="50" height="50" relative="1" as="geometry">
            <mxPoint x="1050" y="-285" as="sourcePoint" />
            <mxPoint x="1035.8799999999999" y="-383.02" as="targetPoint" />
          </mxGeometry>
        </mxCell>
        <mxCell id="uzTgU-yGPW_uOpuA6TY6-32" value="" style="endArrow=none;html=1;rounded=0;fontSize=15;entryX=1;entryY=0.5;entryDx=0;entryDy=0;exitX=-0.011;exitY=0.95;exitDx=0;exitDy=0;exitPerimeter=0;" parent="1" source="uzTgU-yGPW_uOpuA6TY6-18" target="uzTgU-yGPW_uOpuA6TY6-10" edge="1">
          <mxGeometry width="50" height="50" relative="1" as="geometry">
            <mxPoint x="1060" y="-275" as="sourcePoint" />
            <mxPoint x="1045.8799999999999" y="-373.02" as="targetPoint" />
          </mxGeometry>
        </mxCell>
        <mxCell id="uzTgU-yGPW_uOpuA6TY6-33" value="" style="endArrow=none;html=1;rounded=0;fontSize=15;exitX=0;exitY=1;exitDx=0;exitDy=0;entryX=0.5;entryY=0;entryDx=0;entryDy=0;" parent="1" source="uzTgU-yGPW_uOpuA6TY6-1" target="uzTgU-yGPW_uOpuA6TY6-8" edge="1">
          <mxGeometry width="50" height="50" relative="1" as="geometry">
            <mxPoint x="620" y="70" as="sourcePoint" />
            <mxPoint x="670" y="20" as="targetPoint" />
          </mxGeometry>
        </mxCell>
        <mxCell id="uzTgU-yGPW_uOpuA6TY6-34" value="" style="endArrow=none;html=1;rounded=0;fontSize=15;exitX=0.798;exitY=0.004;exitDx=0;exitDy=0;exitPerimeter=0;entryX=0.5;entryY=1;entryDx=0;entryDy=0;" parent="1" source="uzTgU-yGPW_uOpuA6TY6-1" target="uzTgU-yGPW_uOpuA6TY6-6" edge="1">
          <mxGeometry width="50" height="50" relative="1" as="geometry">
            <mxPoint x="690" y="160" as="sourcePoint" />
            <mxPoint x="750" y="170" as="targetPoint" />
          </mxGeometry>
        </mxCell>
        <mxCell id="uzTgU-yGPW_uOpuA6TY6-35" value="" style="endArrow=none;html=1;rounded=0;fontSize=15;exitX=0.333;exitY=0;exitDx=0;exitDy=0;exitPerimeter=0;entryX=0.644;entryY=1.018;entryDx=0;entryDy=0;entryPerimeter=0;" parent="1" source="uzTgU-yGPW_uOpuA6TY6-1" target="uzTgU-yGPW_uOpuA6TY6-3" edge="1">
          <mxGeometry width="50" height="50" relative="1" as="geometry">
            <mxPoint x="575.76" y="100.24000000000001" as="sourcePoint" />
            <mxPoint x="606.04" y="66.58000000000015" as="targetPoint" />
          </mxGeometry>
        </mxCell>
        <mxCell id="uzTgU-yGPW_uOpuA6TY6-36" value="" style="endArrow=none;html=1;rounded=0;fontSize=15;entryX=0.968;entryY=0.688;entryDx=0;entryDy=0;entryPerimeter=0;" parent="1" source="uzTgU-yGPW_uOpuA6TY6-1" target="uzTgU-yGPW_uOpuA6TY6-2" edge="1">
          <mxGeometry width="50" height="50" relative="1" as="geometry">
            <mxPoint x="585.76" y="110.24000000000001" as="sourcePoint" />
            <mxPoint x="616.04" y="76.58000000000015" as="targetPoint" />
          </mxGeometry>
        </mxCell>
        <mxCell id="uzTgU-yGPW_uOpuA6TY6-37" value="" style="endArrow=none;html=1;rounded=0;fontSize=15;exitX=0;exitY=0.5;exitDx=0;exitDy=0;entryX=1.01;entryY=0.409;entryDx=0;entryDy=0;entryPerimeter=0;" parent="1" source="uzTgU-yGPW_uOpuA6TY6-1" target="uzTgU-yGPW_uOpuA6TY6-4" edge="1">
          <mxGeometry width="50" height="50" relative="1" as="geometry">
            <mxPoint x="595.76" y="120.24000000000001" as="sourcePoint" />
            <mxPoint x="626.04" y="86.58000000000015" as="targetPoint" />
          </mxGeometry>
        </mxCell>
        <mxCell id="uzTgU-yGPW_uOpuA6TY6-50" value="teacher" style="rounded=1;whiteSpace=wrap;html=1;fontSize=15;" parent="1" vertex="1">
          <mxGeometry x="1400" y="-42.5" width="120" height="60" as="geometry" />
        </mxCell>
        <mxCell id="uzTgU-yGPW_uOpuA6TY6-51" value="id" style="ellipse;whiteSpace=wrap;html=1;fontSize=15;" parent="1" vertex="1">
          <mxGeometry x="1360" y="-182.5" width="120" height="60" as="geometry" />
        </mxCell>
        <mxCell id="uzTgU-yGPW_uOpuA6TY6-52" value="name" style="ellipse;whiteSpace=wrap;html=1;fontSize=15;" parent="1" vertex="1">
          <mxGeometry x="1470" y="-212.5" width="120" height="60" as="geometry" />
        </mxCell>
        <mxCell id="uzTgU-yGPW_uOpuA6TY6-53" value="teacher_card_id" style="ellipse;whiteSpace=wrap;html=1;fontSize=15;" parent="1" vertex="1">
          <mxGeometry x="1435" y="70" width="120" height="60" as="geometry" />
        </mxCell>
        <mxCell id="uzTgU-yGPW_uOpuA6TY6-54" value="password" style="ellipse;whiteSpace=wrap;html=1;fontSize=15;" parent="1" vertex="1">
          <mxGeometry x="1530" y="-147.5" width="120" height="60" as="geometry" />
        </mxCell>
        <mxCell id="uzTgU-yGPW_uOpuA6TY6-55" value="role" style="ellipse;whiteSpace=wrap;html=1;fontSize=15;" parent="1" vertex="1">
          <mxGeometry x="1610" y="-17.5" width="120" height="60" as="geometry" />
        </mxCell>
        <mxCell id="uzTgU-yGPW_uOpuA6TY6-56" value="" style="endArrow=none;html=1;rounded=0;fontSize=15;exitX=1;exitY=0.5;exitDx=0;exitDy=0;entryX=0;entryY=0.5;entryDx=0;entryDy=0;" parent="1" source="uzTgU-yGPW_uOpuA6TY6-50" target="uzTgU-yGPW_uOpuA6TY6-55" edge="1">
          <mxGeometry width="50" height="50" relative="1" as="geometry">
            <mxPoint x="1550" y="-62.5" as="sourcePoint" />
            <mxPoint x="1600" y="-112.5" as="targetPoint" />
          </mxGeometry>
        </mxCell>
        <mxCell id="uzTgU-yGPW_uOpuA6TY6-57" value="" style="endArrow=none;html=1;rounded=0;fontSize=15;exitX=0.798;exitY=0.004;exitDx=0;exitDy=0;exitPerimeter=0;entryX=0.217;entryY=0.943;entryDx=0;entryDy=0;entryPerimeter=0;" parent="1" source="uzTgU-yGPW_uOpuA6TY6-50" target="uzTgU-yGPW_uOpuA6TY6-54" edge="1">
          <mxGeometry width="50" height="50" relative="1" as="geometry">
            <mxPoint x="1620" y="27.5" as="sourcePoint" />
            <mxPoint x="1680" y="37.5" as="targetPoint" />
          </mxGeometry>
        </mxCell>
        <mxCell id="uzTgU-yGPW_uOpuA6TY6-58" value="" style="endArrow=none;html=1;rounded=0;fontSize=15;entryX=0.389;entryY=0.986;entryDx=0;entryDy=0;entryPerimeter=0;" parent="1" target="uzTgU-yGPW_uOpuA6TY6-52" edge="1">
          <mxGeometry width="50" height="50" relative="1" as="geometry">
            <mxPoint x="1470" y="-47.5" as="sourcePoint" />
            <mxPoint x="1536.04" y="-65.91999999999985" as="targetPoint" />
          </mxGeometry>
        </mxCell>
        <mxCell id="uzTgU-yGPW_uOpuA6TY6-59" value="" style="endArrow=none;html=1;rounded=0;fontSize=15;entryX=0.55;entryY=1.012;entryDx=0;entryDy=0;entryPerimeter=0;" parent="1" target="uzTgU-yGPW_uOpuA6TY6-51" edge="1">
          <mxGeometry width="50" height="50" relative="1" as="geometry">
            <mxPoint x="1440" y="-47.5" as="sourcePoint" />
            <mxPoint x="1546.04" y="-55.919999999999845" as="targetPoint" />
          </mxGeometry>
        </mxCell>
        <mxCell id="uzTgU-yGPW_uOpuA6TY6-60" value="" style="endArrow=none;html=1;rounded=0;fontSize=15;exitX=0.342;exitY=1.003;exitDx=0;exitDy=0;entryX=0.5;entryY=0;entryDx=0;entryDy=0;exitPerimeter=0;" parent="1" source="uzTgU-yGPW_uOpuA6TY6-50" target="uzTgU-yGPW_uOpuA6TY6-53" edge="1">
          <mxGeometry width="50" height="50" relative="1" as="geometry">
            <mxPoint x="1525.76" y="-12.259999999999991" as="sourcePoint" />
            <mxPoint x="1556.04" y="-45.919999999999845" as="targetPoint" />
          </mxGeometry>
        </mxCell>
        <mxCell id="uzTgU-yGPW_uOpuA6TY6-62" value="có" style="rhombus;whiteSpace=wrap;html=1;fontSize=15;" parent="1" vertex="1">
          <mxGeometry x="730" y="-335" width="80" height="80" as="geometry" />
        </mxCell>
        <mxCell id="uzTgU-yGPW_uOpuA6TY6-65" value="" style="endArrow=ERmandOne;html=1;rounded=0;fontSize=15;entryX=1;entryY=0;entryDx=0;entryDy=0;exitX=0;exitY=0.5;exitDx=0;exitDy=0;endFill=0;" parent="1" source="uzTgU-yGPW_uOpuA6TY6-62" target="uzTgU-yGPW_uOpuA6TY6-1" edge="1">
          <mxGeometry width="50" height="50" relative="1" as="geometry">
            <mxPoint x="780" y="100" as="sourcePoint" />
            <mxPoint x="830" y="50" as="targetPoint" />
          </mxGeometry>
        </mxCell>
        <mxCell id="uzTgU-yGPW_uOpuA6TY6-68" value="" style="endArrow=ERmandOne;html=1;rounded=0;fontSize=15;entryX=0;entryY=0.5;entryDx=0;entryDy=0;endFill=0;" parent="1" target="uzTgU-yGPW_uOpuA6TY6-18" edge="1">
          <mxGeometry width="50" height="50" relative="1" as="geometry">
            <mxPoint x="810" y="-295" as="sourcePoint" />
            <mxPoint x="620" y="-260" as="targetPoint" />
          </mxGeometry>
        </mxCell>
        <mxCell id="uzTgU-yGPW_uOpuA6TY6-69" value="có" style="rhombus;whiteSpace=wrap;html=1;fontSize=15;" parent="1" vertex="1">
          <mxGeometry x="1220" y="-345" width="80" height="80" as="geometry" />
        </mxCell>
        <mxCell id="uzTgU-yGPW_uOpuA6TY6-70" value="" style="endArrow=ERmandOne;html=1;rounded=0;fontSize=15;entryX=1;entryY=0.5;entryDx=0;entryDy=0;exitX=0;exitY=0.5;exitDx=0;exitDy=0;endFill=0;" parent="1" source="uzTgU-yGPW_uOpuA6TY6-69" target="uzTgU-yGPW_uOpuA6TY6-18" edge="1">
          <mxGeometry width="50" height="50" relative="1" as="geometry">
            <mxPoint x="820" y="-285" as="sourcePoint" />
            <mxPoint x="970" y="-315" as="targetPoint" />
          </mxGeometry>
        </mxCell>
        <mxCell id="uzTgU-yGPW_uOpuA6TY6-71" value="" style="endArrow=ERmandOne;html=1;rounded=0;fontSize=15;entryX=0;entryY=0;entryDx=0;entryDy=0;exitX=1;exitY=1;exitDx=0;exitDy=0;endFill=0;" parent="1" source="uzTgU-yGPW_uOpuA6TY6-69" target="uzTgU-yGPW_uOpuA6TY6-50" edge="1">
          <mxGeometry width="50" height="50" relative="1" as="geometry">
            <mxPoint x="1210" y="-302.5" as="sourcePoint" />
            <mxPoint x="980" y="92.5" as="targetPoint" />
          </mxGeometry>
        </mxCell>
        <mxCell id="uzTgU-yGPW_uOpuA6TY6-72" value="contract" style="rounded=1;whiteSpace=wrap;html=1;fontSize=15;" parent="1" vertex="1">
          <mxGeometry x="350" y="500" width="120" height="60" as="geometry" />
        </mxCell>
        <mxCell id="uzTgU-yGPW_uOpuA6TY6-73" value="id" style="ellipse;whiteSpace=wrap;html=1;fontSize=15;" parent="1" vertex="1">
          <mxGeometry x="160" y="590" width="120" height="60" as="geometry" />
        </mxCell>
        <mxCell id="uzTgU-yGPW_uOpuA6TY6-74" value="name" style="ellipse;whiteSpace=wrap;html=1;fontSize=15;" parent="1" vertex="1">
          <mxGeometry x="270" y="395" width="120" height="60" as="geometry" />
        </mxCell>
        <mxCell id="uzTgU-yGPW_uOpuA6TY6-76" value="start_date" style="ellipse;whiteSpace=wrap;html=1;fontSize=15;" parent="1" vertex="1">
          <mxGeometry x="320" y="320" width="120" height="60" as="geometry" />
        </mxCell>
        <mxCell id="uzTgU-yGPW_uOpuA6TY6-77" value="end_date" style="ellipse;whiteSpace=wrap;html=1;fontSize=15;" parent="1" vertex="1">
          <mxGeometry x="510" y="555" width="120" height="60" as="geometry" />
        </mxCell>
        <mxCell id="uzTgU-yGPW_uOpuA6TY6-78" value="" style="endArrow=none;html=1;rounded=0;fontSize=15;exitX=1;exitY=0.5;exitDx=0;exitDy=0;entryX=0;entryY=0.5;entryDx=0;entryDy=0;" parent="1" source="uzTgU-yGPW_uOpuA6TY6-72" target="uzTgU-yGPW_uOpuA6TY6-77" edge="1">
          <mxGeometry width="50" height="50" relative="1" as="geometry">
            <mxPoint x="500" y="480" as="sourcePoint" />
            <mxPoint x="550" y="430" as="targetPoint" />
          </mxGeometry>
        </mxCell>
        <mxCell id="uzTgU-yGPW_uOpuA6TY6-79" value="" style="endArrow=none;html=1;rounded=0;fontSize=15;exitX=0.798;exitY=0.004;exitDx=0;exitDy=0;exitPerimeter=0;entryX=0.5;entryY=1;entryDx=0;entryDy=0;" parent="1" source="uzTgU-yGPW_uOpuA6TY6-72" target="uzTgU-yGPW_uOpuA6TY6-76" edge="1">
          <mxGeometry width="50" height="50" relative="1" as="geometry">
            <mxPoint x="570" y="570" as="sourcePoint" />
            <mxPoint x="630" y="580" as="targetPoint" />
          </mxGeometry>
        </mxCell>
        <mxCell id="uzTgU-yGPW_uOpuA6TY6-80" value="" style="endArrow=none;html=1;rounded=0;fontSize=15;exitX=0.333;exitY=0;exitDx=0;exitDy=0;exitPerimeter=0;entryX=0.644;entryY=1.018;entryDx=0;entryDy=0;entryPerimeter=0;" parent="1" source="uzTgU-yGPW_uOpuA6TY6-72" target="uzTgU-yGPW_uOpuA6TY6-74" edge="1">
          <mxGeometry width="50" height="50" relative="1" as="geometry">
            <mxPoint x="455.76" y="510.24" as="sourcePoint" />
            <mxPoint x="486.03999999999996" y="476.58000000000015" as="targetPoint" />
          </mxGeometry>
        </mxCell>
        <mxCell id="uzTgU-yGPW_uOpuA6TY6-81" value="" style="endArrow=none;html=1;rounded=0;fontSize=15;entryX=0.887;entryY=0.193;entryDx=0;entryDy=0;entryPerimeter=0;exitX=0.009;exitY=0.936;exitDx=0;exitDy=0;exitPerimeter=0;" parent="1" source="uzTgU-yGPW_uOpuA6TY6-72" target="uzTgU-yGPW_uOpuA6TY6-73" edge="1">
          <mxGeometry width="50" height="50" relative="1" as="geometry">
            <mxPoint x="465.76" y="520.24" as="sourcePoint" />
            <mxPoint x="496.03999999999996" y="486.58000000000015" as="targetPoint" />
          </mxGeometry>
        </mxCell>
        <mxCell id="uzTgU-yGPW_uOpuA6TY6-84" value="id" style="ellipse;whiteSpace=wrap;html=1;fontSize=15;" parent="1" vertex="1">
          <mxGeometry x="790" y="-535" width="120" height="60" as="geometry" />
        </mxCell>
        <mxCell id="uzTgU-yGPW_uOpuA6TY6-85" value="" style="endArrow=none;html=1;rounded=0;fontSize=15;entryX=0.429;entryY=1.001;entryDx=0;entryDy=0;entryPerimeter=0;exitX=0.25;exitY=0;exitDx=0;exitDy=0;" parent="1" source="uzTgU-yGPW_uOpuA6TY6-18" target="uzTgU-yGPW_uOpuA6TY6-84" edge="1">
          <mxGeometry width="50" height="50" relative="1" as="geometry">
            <mxPoint x="1030" y="-210" as="sourcePoint" />
            <mxPoint x="965.8799999999999" y="-288.02" as="targetPoint" />
          </mxGeometry>
        </mxCell>
        <mxCell id="uzTgU-yGPW_uOpuA6TY6-86" value="season" style="ellipse;whiteSpace=wrap;html=1;fontSize=15;" parent="1" vertex="1">
          <mxGeometry x="293" y="630" width="120" height="60" as="geometry" />
        </mxCell>
        <mxCell id="uzTgU-yGPW_uOpuA6TY6-87" value="" style="endArrow=none;html=1;rounded=0;fontSize=15;exitX=0.389;exitY=1.051;exitDx=0;exitDy=0;entryX=0.5;entryY=0;entryDx=0;entryDy=0;exitPerimeter=0;" parent="1" source="uzTgU-yGPW_uOpuA6TY6-72" target="uzTgU-yGPW_uOpuA6TY6-86" edge="1">
          <mxGeometry width="50" height="50" relative="1" as="geometry">
            <mxPoint x="250" y="730" as="sourcePoint" />
            <mxPoint x="330" y="630" as="targetPoint" />
          </mxGeometry>
        </mxCell>
        <mxCell id="uzTgU-yGPW_uOpuA6TY6-90" value="is_accept" style="ellipse;whiteSpace=wrap;html=1;fontSize=15;" parent="1" vertex="1">
          <mxGeometry x="440" y="630" width="120" height="60" as="geometry" />
        </mxCell>
        <mxCell id="uzTgU-yGPW_uOpuA6TY6-91" value="" style="endArrow=none;html=1;rounded=0;fontSize=15;exitX=0.75;exitY=1;exitDx=0;exitDy=0;entryX=0.5;entryY=0;entryDx=0;entryDy=0;" parent="1" source="uzTgU-yGPW_uOpuA6TY6-72" target="uzTgU-yGPW_uOpuA6TY6-90" edge="1">
          <mxGeometry width="50" height="50" relative="1" as="geometry">
            <mxPoint x="460" y="585" as="sourcePoint" />
            <mxPoint x="440" y="655" as="targetPoint" />
          </mxGeometry>
        </mxCell>
        <mxCell id="uzTgU-yGPW_uOpuA6TY6-92" value="room" style="rounded=1;whiteSpace=wrap;html=1;fontSize=15;" parent="1" vertex="1">
          <mxGeometry x="-60" y="270" width="120" height="60" as="geometry" />
        </mxCell>
        <mxCell id="uzTgU-yGPW_uOpuA6TY6-93" value="id" style="ellipse;whiteSpace=wrap;html=1;fontSize=15;" parent="1" vertex="1">
          <mxGeometry x="-190" y="200" width="120" height="60" as="geometry" />
        </mxCell>
        <mxCell id="uzTgU-yGPW_uOpuA6TY6-94" value="status" style="ellipse;whiteSpace=wrap;html=1;fontSize=15;" parent="1" vertex="1">
          <mxGeometry x="-90" y="140" width="120" height="60" as="geometry" />
        </mxCell>
        <mxCell id="uzTgU-yGPW_uOpuA6TY6-96" value="name" style="ellipse;whiteSpace=wrap;html=1;fontSize=15;" parent="1" vertex="1">
          <mxGeometry x="170" y="187.5" width="120" height="60" as="geometry" />
        </mxCell>
        <mxCell id="uzTgU-yGPW_uOpuA6TY6-97" value="amount" style="ellipse;whiteSpace=wrap;html=1;fontSize=15;" parent="1" vertex="1">
          <mxGeometry x="150" y="280" width="120" height="60" as="geometry" />
        </mxCell>
        <mxCell id="uzTgU-yGPW_uOpuA6TY6-98" value="" style="endArrow=none;html=1;rounded=0;fontSize=15;exitX=1;exitY=0.5;exitDx=0;exitDy=0;entryX=0;entryY=0.5;entryDx=0;entryDy=0;" parent="1" source="uzTgU-yGPW_uOpuA6TY6-92" target="uzTgU-yGPW_uOpuA6TY6-97" edge="1">
          <mxGeometry width="50" height="50" relative="1" as="geometry">
            <mxPoint x="90" y="250" as="sourcePoint" />
            <mxPoint x="140" y="200" as="targetPoint" />
          </mxGeometry>
        </mxCell>
        <mxCell id="uzTgU-yGPW_uOpuA6TY6-99" value="" style="endArrow=none;html=1;rounded=0;fontSize=15;exitX=1.003;exitY=0.094;exitDx=0;exitDy=0;exitPerimeter=0;entryX=0;entryY=0.5;entryDx=0;entryDy=0;" parent="1" source="uzTgU-yGPW_uOpuA6TY6-92" target="uzTgU-yGPW_uOpuA6TY6-96" edge="1">
          <mxGeometry width="50" height="50" relative="1" as="geometry">
            <mxPoint x="160" y="340" as="sourcePoint" />
            <mxPoint x="220" y="350" as="targetPoint" />
          </mxGeometry>
        </mxCell>
        <mxCell id="uzTgU-yGPW_uOpuA6TY6-100" value="" style="endArrow=none;html=1;rounded=0;fontSize=15;exitX=0.5;exitY=0;exitDx=0;exitDy=0;entryX=0.644;entryY=1.018;entryDx=0;entryDy=0;entryPerimeter=0;" parent="1" source="uzTgU-yGPW_uOpuA6TY6-92" target="uzTgU-yGPW_uOpuA6TY6-94" edge="1">
          <mxGeometry width="50" height="50" relative="1" as="geometry">
            <mxPoint x="45.75999999999999" y="280.24" as="sourcePoint" />
            <mxPoint x="76.03999999999996" y="246.58000000000015" as="targetPoint" />
          </mxGeometry>
        </mxCell>
        <mxCell id="uzTgU-yGPW_uOpuA6TY6-101" value="" style="endArrow=none;html=1;rounded=0;fontSize=15;entryX=0.968;entryY=0.688;entryDx=0;entryDy=0;entryPerimeter=0;" parent="1" source="uzTgU-yGPW_uOpuA6TY6-92" target="uzTgU-yGPW_uOpuA6TY6-93" edge="1">
          <mxGeometry width="50" height="50" relative="1" as="geometry">
            <mxPoint x="55.75999999999999" y="290.24" as="sourcePoint" />
            <mxPoint x="86.03999999999996" y="256.58000000000015" as="targetPoint" />
          </mxGeometry>
        </mxCell>
        <mxCell id="uzTgU-yGPW_uOpuA6TY6-103" value="" style="endArrow=ERmandOne;html=1;rounded=0;fontSize=15;entryX=1;entryY=0.75;entryDx=0;entryDy=0;exitX=0;exitY=0.5;exitDx=0;exitDy=0;endFill=0;fontStyle=1" parent="1" source="uzTgU-yGPW_uOpuA6TY6-143" target="uzTgU-yGPW_uOpuA6TY6-92" edge="1">
          <mxGeometry width="50" height="50" relative="1" as="geometry">
            <mxPoint x="180" y="290" as="sourcePoint" />
            <mxPoint x="300" y="230" as="targetPoint" />
          </mxGeometry>
        </mxCell>
        <mxCell id="uzTgU-yGPW_uOpuA6TY6-108" value="room_detail" style="rounded=1;whiteSpace=wrap;html=1;fontSize=15;" parent="1" vertex="1">
          <mxGeometry x="-350" y="540" width="120" height="60" as="geometry" />
        </mxCell>
        <mxCell id="uzTgU-yGPW_uOpuA6TY6-109" value="id" style="ellipse;whiteSpace=wrap;html=1;fontSize=15;" parent="1" vertex="1">
          <mxGeometry x="-560" y="600" width="120" height="60" as="geometry" />
        </mxCell>
        <mxCell id="uzTgU-yGPW_uOpuA6TY6-110" value="max" style="ellipse;whiteSpace=wrap;html=1;fontSize=15;" parent="1" vertex="1">
          <mxGeometry x="-600" y="530" width="120" height="60" as="geometry" />
        </mxCell>
        <mxCell id="uzTgU-yGPW_uOpuA6TY6-111" value="price_per_month" style="ellipse;whiteSpace=wrap;html=1;fontSize=15;" parent="1" vertex="1">
          <mxGeometry x="-540" y="440" width="120" height="60" as="geometry" />
        </mxCell>
        <mxCell id="uzTgU-yGPW_uOpuA6TY6-112" value="description" style="ellipse;whiteSpace=wrap;html=1;fontSize=15;" parent="1" vertex="1">
          <mxGeometry x="-420" y="410" width="120" height="60" as="geometry" />
        </mxCell>
        <mxCell id="uzTgU-yGPW_uOpuA6TY6-113" value="" style="endArrow=none;html=1;rounded=0;fontSize=15;exitX=0.393;exitY=-0.048;exitDx=0;exitDy=0;entryX=0.32;entryY=0.985;entryDx=0;entryDy=0;exitPerimeter=0;entryPerimeter=0;" parent="1" source="uzTgU-yGPW_uOpuA6TY6-108" target="uzTgU-yGPW_uOpuA6TY6-112" edge="1">
          <mxGeometry width="50" height="50" relative="1" as="geometry">
            <mxPoint x="-200" y="520" as="sourcePoint" />
            <mxPoint x="-150" y="470" as="targetPoint" />
          </mxGeometry>
        </mxCell>
        <mxCell id="uzTgU-yGPW_uOpuA6TY6-114" value="" style="endArrow=none;html=1;rounded=0;fontSize=15;exitX=0;exitY=0;exitDx=0;exitDy=0;entryX=0.5;entryY=1;entryDx=0;entryDy=0;" parent="1" source="uzTgU-yGPW_uOpuA6TY6-108" target="uzTgU-yGPW_uOpuA6TY6-111" edge="1">
          <mxGeometry width="50" height="50" relative="1" as="geometry">
            <mxPoint x="-130" y="610" as="sourcePoint" />
            <mxPoint x="-70" y="620" as="targetPoint" />
          </mxGeometry>
        </mxCell>
        <mxCell id="uzTgU-yGPW_uOpuA6TY6-115" value="" style="endArrow=none;html=1;rounded=0;fontSize=15;exitX=-0.014;exitY=0.396;exitDx=0;exitDy=0;exitPerimeter=0;entryX=0.959;entryY=0.756;entryDx=0;entryDy=0;entryPerimeter=0;" parent="1" source="uzTgU-yGPW_uOpuA6TY6-108" target="uzTgU-yGPW_uOpuA6TY6-110" edge="1">
          <mxGeometry width="50" height="50" relative="1" as="geometry">
            <mxPoint x="-244.24" y="550.24" as="sourcePoint" />
            <mxPoint x="-213.96000000000004" y="516.5800000000002" as="targetPoint" />
          </mxGeometry>
        </mxCell>
        <mxCell id="uzTgU-yGPW_uOpuA6TY6-116" value="" style="endArrow=none;html=1;rounded=0;fontSize=15;entryX=0.968;entryY=0.688;entryDx=0;entryDy=0;entryPerimeter=0;" parent="1" source="uzTgU-yGPW_uOpuA6TY6-108" target="uzTgU-yGPW_uOpuA6TY6-109" edge="1">
          <mxGeometry width="50" height="50" relative="1" as="geometry">
            <mxPoint x="-234.24" y="560.24" as="sourcePoint" />
            <mxPoint x="-203.96000000000004" y="526.5800000000002" as="targetPoint" />
          </mxGeometry>
        </mxCell>
        <mxCell id="uzTgU-yGPW_uOpuA6TY6-117" value="" style="endArrow=ERmandOne;html=1;rounded=0;fontSize=15;entryX=1;entryY=0;entryDx=0;entryDy=0;endFill=0;exitX=0;exitY=1;exitDx=0;exitDy=0;" parent="1" source="uzTgU-yGPW_uOpuA6TY6-118" target="uzTgU-yGPW_uOpuA6TY6-108" edge="1">
          <mxGeometry width="50" height="50" relative="1" as="geometry">
            <mxPoint x="-140" y="540" as="sourcePoint" />
            <mxPoint x="50" y="550" as="targetPoint" />
          </mxGeometry>
        </mxCell>
        <mxCell id="uzTgU-yGPW_uOpuA6TY6-118" value="có" style="rhombus;whiteSpace=wrap;html=1;fontSize=15;" parent="1" vertex="1">
          <mxGeometry x="-180" y="430" width="80" height="80" as="geometry" />
        </mxCell>
        <mxCell id="uzTgU-yGPW_uOpuA6TY6-120" value="" style="endArrow=ERoneToMany;html=1;rounded=0;fontSize=15;entryX=0;entryY=1;entryDx=0;entryDy=0;endFill=0;exitX=1;exitY=0;exitDx=0;exitDy=0;" parent="1" source="uzTgU-yGPW_uOpuA6TY6-118" target="uzTgU-yGPW_uOpuA6TY6-92" edge="1">
          <mxGeometry width="50" height="50" relative="1" as="geometry">
            <mxPoint x="-169.99999999999977" y="409.9999999999998" as="sourcePoint" />
            <mxPoint x="-250" y="459.9999999999998" as="targetPoint" />
          </mxGeometry>
        </mxCell>
        <mxCell id="uzTgU-yGPW_uOpuA6TY6-122" value="floor" style="rounded=1;whiteSpace=wrap;html=1;fontSize=15;" parent="1" vertex="1">
          <mxGeometry x="40" y="-117.5" width="120" height="60" as="geometry" />
        </mxCell>
        <mxCell id="uzTgU-yGPW_uOpuA6TY6-123" value="id" style="ellipse;whiteSpace=wrap;html=1;fontSize=15;" parent="1" vertex="1">
          <mxGeometry x="-150" y="-122.5" width="120" height="60" as="geometry" />
        </mxCell>
        <mxCell id="uzTgU-yGPW_uOpuA6TY6-124" value="name" style="ellipse;whiteSpace=wrap;html=1;fontSize=15;" parent="1" vertex="1">
          <mxGeometry x="230" y="-110" width="120" height="60" as="geometry" />
        </mxCell>
        <mxCell id="uzTgU-yGPW_uOpuA6TY6-129" value="" style="endArrow=none;html=1;rounded=0;fontSize=15;exitX=1;exitY=0.5;exitDx=0;exitDy=0;entryX=0;entryY=0.5;entryDx=0;entryDy=0;" parent="1" source="uzTgU-yGPW_uOpuA6TY6-122" target="uzTgU-yGPW_uOpuA6TY6-124" edge="1">
          <mxGeometry width="50" height="50" relative="1" as="geometry">
            <mxPoint x="115.75999999999999" y="-167.26" as="sourcePoint" />
            <mxPoint x="146.03999999999996" y="-200.91999999999985" as="targetPoint" />
          </mxGeometry>
        </mxCell>
        <mxCell id="uzTgU-yGPW_uOpuA6TY6-130" value="" style="endArrow=none;html=1;rounded=0;fontSize=15;entryX=1;entryY=0.5;entryDx=0;entryDy=0;" parent="1" source="uzTgU-yGPW_uOpuA6TY6-122" target="uzTgU-yGPW_uOpuA6TY6-123" edge="1">
          <mxGeometry width="50" height="50" relative="1" as="geometry">
            <mxPoint x="125.75999999999999" y="-157.26" as="sourcePoint" />
            <mxPoint x="156.03999999999996" y="-190.91999999999985" as="targetPoint" />
          </mxGeometry>
        </mxCell>
        <mxCell id="uzTgU-yGPW_uOpuA6TY6-131" value="" style="endArrow=ERmandOne;html=1;rounded=0;fontSize=15;entryX=0.5;entryY=1;entryDx=0;entryDy=0;exitX=0.5;exitY=0;exitDx=0;exitDy=0;endFill=0;" parent="1" source="uzTgU-yGPW_uOpuA6TY6-132" target="uzTgU-yGPW_uOpuA6TY6-122" edge="1">
          <mxGeometry width="50" height="50" relative="1" as="geometry">
            <mxPoint x="250.00000000000023" y="-157.49999999999977" as="sourcePoint" />
            <mxPoint x="370" y="-217.5" as="targetPoint" />
          </mxGeometry>
        </mxCell>
        <mxCell id="uzTgU-yGPW_uOpuA6TY6-132" value="có" style="rhombus;whiteSpace=wrap;html=1;fontSize=15;" parent="1" vertex="1">
          <mxGeometry x="40" y="30" width="80" height="80" as="geometry" />
        </mxCell>
        <mxCell id="uzTgU-yGPW_uOpuA6TY6-133" value="" style="endArrow=ERoneToMany;html=1;rounded=0;fontSize=15;entryX=0.704;entryY=-0.035;entryDx=0;entryDy=0;endFill=0;exitX=0.5;exitY=1;exitDx=0;exitDy=0;entryPerimeter=0;" parent="1" source="uzTgU-yGPW_uOpuA6TY6-132" target="uzTgU-yGPW_uOpuA6TY6-92" edge="1">
          <mxGeometry width="50" height="50" relative="1" as="geometry">
            <mxPoint x="-110" y="460" as="sourcePoint" />
            <mxPoint x="-49.99999999999977" y="340.0000000000002" as="targetPoint" />
          </mxGeometry>
        </mxCell>
        <mxCell id="uzTgU-yGPW_uOpuA6TY6-135" value="builiding" style="rounded=1;whiteSpace=wrap;html=1;fontSize=15;" parent="1" vertex="1">
          <mxGeometry x="230" y="-380" width="120" height="60" as="geometry" />
        </mxCell>
        <mxCell id="uzTgU-yGPW_uOpuA6TY6-136" value="id" style="ellipse;whiteSpace=wrap;html=1;fontSize=15;" parent="1" vertex="1">
          <mxGeometry x="120" y="-485" width="120" height="60" as="geometry" />
        </mxCell>
        <mxCell id="uzTgU-yGPW_uOpuA6TY6-137" value="name" style="ellipse;whiteSpace=wrap;html=1;fontSize=15;" parent="1" vertex="1">
          <mxGeometry x="260" y="-535" width="120" height="60" as="geometry" />
        </mxCell>
        <mxCell id="uzTgU-yGPW_uOpuA6TY6-138" value="" style="endArrow=none;html=1;rounded=0;fontSize=15;exitX=0.5;exitY=0;exitDx=0;exitDy=0;entryX=0.644;entryY=1.018;entryDx=0;entryDy=0;entryPerimeter=0;" parent="1" source="uzTgU-yGPW_uOpuA6TY6-135" target="uzTgU-yGPW_uOpuA6TY6-137" edge="1">
          <mxGeometry width="50" height="50" relative="1" as="geometry">
            <mxPoint x="545.76" y="-384.76" as="sourcePoint" />
            <mxPoint x="576.04" y="-418.41999999999985" as="targetPoint" />
          </mxGeometry>
        </mxCell>
        <mxCell id="uzTgU-yGPW_uOpuA6TY6-139" value="" style="endArrow=none;html=1;rounded=0;fontSize=15;entryX=0.968;entryY=0.688;entryDx=0;entryDy=0;entryPerimeter=0;" parent="1" target="uzTgU-yGPW_uOpuA6TY6-136" edge="1">
          <mxGeometry width="50" height="50" relative="1" as="geometry">
            <mxPoint x="270" y="-380" as="sourcePoint" />
            <mxPoint x="586.04" y="-408.41999999999985" as="targetPoint" />
          </mxGeometry>
        </mxCell>
        <mxCell id="uzTgU-yGPW_uOpuA6TY6-140" value="" style="endArrow=ERmandOne;html=1;rounded=0;fontSize=15;entryX=0.5;entryY=1;entryDx=0;entryDy=0;exitX=1;exitY=0;exitDx=0;exitDy=0;endFill=0;" parent="1" source="uzTgU-yGPW_uOpuA6TY6-141" target="uzTgU-yGPW_uOpuA6TY6-135" edge="1">
          <mxGeometry width="50" height="50" relative="1" as="geometry">
            <mxPoint x="680.0000000000002" y="-374.9999999999998" as="sourcePoint" />
            <mxPoint x="800" y="-435" as="targetPoint" />
          </mxGeometry>
        </mxCell>
        <mxCell id="uzTgU-yGPW_uOpuA6TY6-141" value="có" style="rhombus;whiteSpace=wrap;html=1;fontSize=15;" parent="1" vertex="1">
          <mxGeometry x="140" y="-262.5" width="80" height="80" as="geometry" />
        </mxCell>
        <mxCell id="uzTgU-yGPW_uOpuA6TY6-142" value="" style="endArrow=ERoneToMany;html=1;rounded=0;fontSize=15;endFill=0;exitX=0;exitY=1;exitDx=0;exitDy=0;entryX=0.5;entryY=0;entryDx=0;entryDy=0;" parent="1" source="uzTgU-yGPW_uOpuA6TY6-141" target="uzTgU-yGPW_uOpuA6TY6-122" edge="1">
          <mxGeometry width="50" height="50" relative="1" as="geometry">
            <mxPoint x="610" y="-125.00000000000023" as="sourcePoint" />
            <mxPoint x="387.4000000000001" y="-182.5" as="targetPoint" />
          </mxGeometry>
        </mxCell>
        <mxCell id="uzTgU-yGPW_uOpuA6TY6-143" value="có" style="rhombus;whiteSpace=wrap;html=1;fontSize=15;" parent="1" vertex="1">
          <mxGeometry x="140" y="380" width="80" height="80" as="geometry" />
        </mxCell>
        <mxCell id="uzTgU-yGPW_uOpuA6TY6-144" value="" style="endArrow=ERoneToMany;html=1;rounded=0;fontSize=15;entryX=0;entryY=0;entryDx=0;entryDy=0;endFill=0;exitX=1;exitY=0.5;exitDx=0;exitDy=0;" parent="1" source="uzTgU-yGPW_uOpuA6TY6-143" target="uzTgU-yGPW_uOpuA6TY6-72" edge="1">
          <mxGeometry width="50" height="50" relative="1" as="geometry">
            <mxPoint x="-110" y="460" as="sourcePoint" />
            <mxPoint x="-50" y="340" as="targetPoint" />
          </mxGeometry>
        </mxCell>
        <mxCell id="uzTgU-yGPW_uOpuA6TY6-145" value="có" style="rhombus;whiteSpace=wrap;html=1;fontSize=15;" parent="1" vertex="1">
          <mxGeometry x="480" y="270" width="80" height="80" as="geometry" />
        </mxCell>
        <mxCell id="uzTgU-yGPW_uOpuA6TY6-147" value="" style="endArrow=ERmandOne;html=1;rounded=0;fontSize=15;entryX=0.25;entryY=1;entryDx=0;entryDy=0;exitX=0.5;exitY=0;exitDx=0;exitDy=0;endFill=0;" parent="1" source="uzTgU-yGPW_uOpuA6TY6-145" target="uzTgU-yGPW_uOpuA6TY6-1" edge="1">
          <mxGeometry width="50" height="50" relative="1" as="geometry">
            <mxPoint x="720" y="120" as="sourcePoint" />
            <mxPoint x="600" y="145" as="targetPoint" />
          </mxGeometry>
        </mxCell>
        <mxCell id="uzTgU-yGPW_uOpuA6TY6-149" value="" style="endArrow=ERoneToMany;html=1;rounded=0;fontSize=15;entryX=1;entryY=0;entryDx=0;entryDy=0;endFill=0;exitX=0.5;exitY=1;exitDx=0;exitDy=0;" parent="1" source="uzTgU-yGPW_uOpuA6TY6-145" target="uzTgU-yGPW_uOpuA6TY6-72" edge="1">
          <mxGeometry width="50" height="50" relative="1" as="geometry">
            <mxPoint x="230" y="430" as="sourcePoint" />
            <mxPoint x="360" y="510" as="targetPoint" />
          </mxGeometry>
        </mxCell>
        <mxCell id="uzTgU-yGPW_uOpuA6TY6-150" value="bill" style="rounded=1;whiteSpace=wrap;html=1;fontSize=15;" parent="1" vertex="1">
          <mxGeometry x="-60" y="680" width="120" height="60" as="geometry" />
        </mxCell>
        <mxCell id="uzTgU-yGPW_uOpuA6TY6-151" value="pay_end_time" style="ellipse;whiteSpace=wrap;html=1;fontSize=15;" parent="1" vertex="1">
          <mxGeometry x="-270" y="740" width="120" height="60" as="geometry" />
        </mxCell>
        <mxCell id="uzTgU-yGPW_uOpuA6TY6-152" value="pay_start_time" style="ellipse;whiteSpace=wrap;html=1;fontSize=15;" parent="1" vertex="1">
          <mxGeometry x="-310" y="670" width="120" height="60" as="geometry" />
        </mxCell>
        <mxCell id="uzTgU-yGPW_uOpuA6TY6-153" value="price" style="ellipse;whiteSpace=wrap;html=1;fontSize=15;" parent="1" vertex="1">
          <mxGeometry x="-220" y="600" width="120" height="60" as="geometry" />
        </mxCell>
        <mxCell id="uzTgU-yGPW_uOpuA6TY6-154" value="is_paid" style="ellipse;whiteSpace=wrap;html=1;fontSize=15;" parent="1" vertex="1">
          <mxGeometry x="-130" y="524.5" width="120" height="60" as="geometry" />
        </mxCell>
        <mxCell id="uzTgU-yGPW_uOpuA6TY6-155" value="" style="endArrow=none;html=1;rounded=0;fontSize=15;exitX=0.393;exitY=-0.048;exitDx=0;exitDy=0;entryX=0.32;entryY=0.985;entryDx=0;entryDy=0;exitPerimeter=0;entryPerimeter=0;" parent="1" source="uzTgU-yGPW_uOpuA6TY6-150" target="uzTgU-yGPW_uOpuA6TY6-154" edge="1">
          <mxGeometry width="50" height="50" relative="1" as="geometry">
            <mxPoint x="90" y="660" as="sourcePoint" />
            <mxPoint x="140" y="610" as="targetPoint" />
          </mxGeometry>
        </mxCell>
        <mxCell id="uzTgU-yGPW_uOpuA6TY6-156" value="" style="endArrow=none;html=1;rounded=0;fontSize=15;exitX=0;exitY=0;exitDx=0;exitDy=0;entryX=0.5;entryY=1;entryDx=0;entryDy=0;" parent="1" source="uzTgU-yGPW_uOpuA6TY6-150" target="uzTgU-yGPW_uOpuA6TY6-153" edge="1">
          <mxGeometry width="50" height="50" relative="1" as="geometry">
            <mxPoint x="160" y="750" as="sourcePoint" />
            <mxPoint x="220" y="760" as="targetPoint" />
          </mxGeometry>
        </mxCell>
        <mxCell id="uzTgU-yGPW_uOpuA6TY6-157" value="" style="endArrow=none;html=1;rounded=0;fontSize=15;exitX=-0.014;exitY=0.396;exitDx=0;exitDy=0;exitPerimeter=0;entryX=0.959;entryY=0.756;entryDx=0;entryDy=0;entryPerimeter=0;" parent="1" source="uzTgU-yGPW_uOpuA6TY6-150" target="uzTgU-yGPW_uOpuA6TY6-152" edge="1">
          <mxGeometry width="50" height="50" relative="1" as="geometry">
            <mxPoint x="45.75999999999999" y="690.24" as="sourcePoint" />
            <mxPoint x="76.03999999999996" y="656.5800000000002" as="targetPoint" />
          </mxGeometry>
        </mxCell>
        <mxCell id="uzTgU-yGPW_uOpuA6TY6-158" value="" style="endArrow=none;html=1;rounded=0;fontSize=15;entryX=0.968;entryY=0.688;entryDx=0;entryDy=0;entryPerimeter=0;" parent="1" source="uzTgU-yGPW_uOpuA6TY6-150" target="uzTgU-yGPW_uOpuA6TY6-151" edge="1">
          <mxGeometry width="50" height="50" relative="1" as="geometry">
            <mxPoint x="55.75999999999999" y="700.24" as="sourcePoint" />
            <mxPoint x="86.03999999999996" y="666.5800000000002" as="targetPoint" />
          </mxGeometry>
        </mxCell>
        <mxCell id="uzTgU-yGPW_uOpuA6TY6-159" value="" style="endArrow=ERmandOne;html=1;rounded=0;fontSize=15;entryX=1;entryY=0;entryDx=0;entryDy=0;endFill=0;exitX=0;exitY=1;exitDx=0;exitDy=0;" parent="1" source="uzTgU-yGPW_uOpuA6TY6-160" target="uzTgU-yGPW_uOpuA6TY6-150" edge="1">
          <mxGeometry width="50" height="50" relative="1" as="geometry">
            <mxPoint x="150" y="680" as="sourcePoint" />
            <mxPoint x="340" y="690" as="targetPoint" />
          </mxGeometry>
        </mxCell>
        <mxCell id="uzTgU-yGPW_uOpuA6TY6-160" value="có" style="rhombus;whiteSpace=wrap;html=1;fontSize=15;" parent="1" vertex="1">
          <mxGeometry x="110" y="530" width="80" height="80" as="geometry" />
        </mxCell>
        <mxCell id="uzTgU-yGPW_uOpuA6TY6-161" value="" style="endArrow=ERmandOne;html=1;rounded=0;fontSize=15;entryX=0;entryY=0.5;entryDx=0;entryDy=0;endFill=0;exitX=1;exitY=0.5;exitDx=0;exitDy=0;" parent="1" source="uzTgU-yGPW_uOpuA6TY6-160" target="uzTgU-yGPW_uOpuA6TY6-72" edge="1">
          <mxGeometry width="50" height="50" relative="1" as="geometry">
            <mxPoint x="139.99999999999977" y="600" as="sourcePoint" />
            <mxPoint x="70.00000000000023" y="690" as="targetPoint" />
          </mxGeometry>
        </mxCell>
        <mxCell id="uzTgU-yGPW_uOpuA6TY6-162" value="id" style="ellipse;whiteSpace=wrap;html=1;fontSize=15;" parent="1" vertex="1">
          <mxGeometry x="-40" y="570" width="120" height="60" as="geometry" />
        </mxCell>
        <mxCell id="uzTgU-yGPW_uOpuA6TY6-163" value="" style="endArrow=none;html=1;rounded=0;fontSize=15;exitX=0.5;exitY=0;exitDx=0;exitDy=0;entryX=0.32;entryY=0.985;entryDx=0;entryDy=0;entryPerimeter=0;" parent="1" source="uzTgU-yGPW_uOpuA6TY6-150" target="uzTgU-yGPW_uOpuA6TY6-162" edge="1">
          <mxGeometry width="50" height="50" relative="1" as="geometry">
            <mxPoint x="97.15999999999985" y="669.9999999999999" as="sourcePoint" />
            <mxPoint x="250" y="602.88" as="targetPoint" />
          </mxGeometry>
        </mxCell>
        <mxCell id="uzTgU-yGPW_uOpuA6TY6-165" value="form" style="rounded=1;whiteSpace=wrap;html=1;fontSize=15;" parent="1" vertex="1">
          <mxGeometry x="940" y="127.5" width="120" height="60" as="geometry" />
        </mxCell>
        <mxCell id="uzTgU-yGPW_uOpuA6TY6-166" value="id" style="ellipse;whiteSpace=wrap;html=1;fontSize=15;" parent="1" vertex="1">
          <mxGeometry x="760" y="40" width="120" height="60" as="geometry" />
        </mxCell>
        <mxCell id="uzTgU-yGPW_uOpuA6TY6-167" value="title" style="ellipse;whiteSpace=wrap;html=1;fontSize=15;" parent="1" vertex="1">
          <mxGeometry x="760" y="-57.5" width="120" height="60" as="geometry" />
        </mxCell>
        <mxCell id="uzTgU-yGPW_uOpuA6TY6-169" value="content" style="ellipse;whiteSpace=wrap;html=1;fontSize=15;" parent="1" vertex="1">
          <mxGeometry x="910" y="-20" width="120" height="60" as="geometry" />
        </mxCell>
        <mxCell id="uzTgU-yGPW_uOpuA6TY6-172" value="" style="endArrow=none;html=1;rounded=0;fontSize=15;entryX=0.217;entryY=0.943;entryDx=0;entryDy=0;entryPerimeter=0;exitX=0.438;exitY=0.028;exitDx=0;exitDy=0;exitPerimeter=0;" parent="1" source="uzTgU-yGPW_uOpuA6TY6-165" target="uzTgU-yGPW_uOpuA6TY6-169" edge="1">
          <mxGeometry width="50" height="50" relative="1" as="geometry">
            <mxPoint x="1000" y="122.5" as="sourcePoint" />
            <mxPoint x="1220" y="207.5" as="targetPoint" />
          </mxGeometry>
        </mxCell>
        <mxCell id="uzTgU-yGPW_uOpuA6TY6-173" value="" style="endArrow=none;html=1;rounded=0;fontSize=15;exitX=0.333;exitY=0;exitDx=0;exitDy=0;exitPerimeter=0;entryX=0.644;entryY=1.018;entryDx=0;entryDy=0;entryPerimeter=0;" parent="1" source="uzTgU-yGPW_uOpuA6TY6-165" target="uzTgU-yGPW_uOpuA6TY6-167" edge="1">
          <mxGeometry width="50" height="50" relative="1" as="geometry">
            <mxPoint x="1045.76" y="137.74" as="sourcePoint" />
            <mxPoint x="1076.04" y="104.08000000000015" as="targetPoint" />
          </mxGeometry>
        </mxCell>
        <mxCell id="uzTgU-yGPW_uOpuA6TY6-174" value="" style="endArrow=none;html=1;rounded=0;fontSize=15;entryX=0.968;entryY=0.688;entryDx=0;entryDy=0;entryPerimeter=0;" parent="1" source="uzTgU-yGPW_uOpuA6TY6-165" target="uzTgU-yGPW_uOpuA6TY6-166" edge="1">
          <mxGeometry width="50" height="50" relative="1" as="geometry">
            <mxPoint x="1055.76" y="147.74" as="sourcePoint" />
            <mxPoint x="1086.04" y="114.08000000000015" as="targetPoint" />
          </mxGeometry>
        </mxCell>
        <mxCell id="uzTgU-yGPW_uOpuA6TY6-176" value="register_at" style="ellipse;whiteSpace=wrap;html=1;fontSize=15;" parent="1" vertex="1">
          <mxGeometry x="370" y="710" width="120" height="60" as="geometry" />
        </mxCell>
        <mxCell id="uzTgU-yGPW_uOpuA6TY6-177" value="" style="endArrow=none;html=1;rounded=0;fontSize=15;exitX=0.62;exitY=1.036;exitDx=0;exitDy=0;entryX=0.5;entryY=0;entryDx=0;entryDy=0;exitPerimeter=0;" parent="1" source="uzTgU-yGPW_uOpuA6TY6-72" target="uzTgU-yGPW_uOpuA6TY6-176" edge="1">
          <mxGeometry width="50" height="50" relative="1" as="geometry">
            <mxPoint x="493.67999999999984" y="619.9999999999995" as="sourcePoint" />
            <mxPoint x="427" y="686.94" as="targetPoint" />
          </mxGeometry>
        </mxCell>
        <mxCell id="uzTgU-yGPW_uOpuA6TY6-178" value="có" style="rhombus;whiteSpace=wrap;html=1;fontSize=15;" parent="1" vertex="1">
          <mxGeometry x="760" y="140" width="80" height="80" as="geometry" />
        </mxCell>
        <mxCell id="uzTgU-yGPW_uOpuA6TY6-181" value="" style="endArrow=ERmandOne;html=1;rounded=0;fontSize=15;entryX=1;entryY=0.5;entryDx=0;entryDy=0;exitX=0;exitY=0.5;exitDx=0;exitDy=0;endFill=0;" parent="1" source="uzTgU-yGPW_uOpuA6TY6-178" target="uzTgU-yGPW_uOpuA6TY6-1" edge="1">
          <mxGeometry width="50" height="50" relative="1" as="geometry">
            <mxPoint x="760" y="340" as="sourcePoint" />
            <mxPoint x="600" y="145" as="targetPoint" />
          </mxGeometry>
        </mxCell>
        <mxCell id="uzTgU-yGPW_uOpuA6TY6-183" value="" style="endArrow=ERoneToMany;html=1;rounded=0;fontSize=15;entryX=0;entryY=1;entryDx=0;entryDy=0;endFill=0;exitX=1;exitY=0.5;exitDx=0;exitDy=0;" parent="1" source="uzTgU-yGPW_uOpuA6TY6-178" target="uzTgU-yGPW_uOpuA6TY6-165" edge="1">
          <mxGeometry width="50" height="50" relative="1" as="geometry">
            <mxPoint x="890" y="342.5" as="sourcePoint" />
            <mxPoint x="940" y="192.5" as="targetPoint" />
          </mxGeometry>
        </mxCell>
        <mxCell id="uzTgU-yGPW_uOpuA6TY6-185" value="có" style="rhombus;whiteSpace=wrap;html=1;fontSize=15;" parent="1" vertex="1">
          <mxGeometry x="1230" y="80" width="80" height="80" as="geometry" />
        </mxCell>
        <mxCell id="uzTgU-yGPW_uOpuA6TY6-186" value="" style="endArrow=ERoneToMany;html=1;rounded=0;fontSize=15;entryX=1;entryY=1;entryDx=0;entryDy=0;endFill=0;exitX=0;exitY=0.5;exitDx=0;exitDy=0;" parent="1" source="uzTgU-yGPW_uOpuA6TY6-185" target="uzTgU-yGPW_uOpuA6TY6-165" edge="1">
          <mxGeometry width="50" height="50" relative="1" as="geometry">
            <mxPoint x="1266" y="367.5" as="sourcePoint" />
            <mxPoint x="1316" y="212.5" as="targetPoint" />
          </mxGeometry>
        </mxCell>
        <mxCell id="uzTgU-yGPW_uOpuA6TY6-187" value="" style="endArrow=ERmandOne;html=1;rounded=0;fontSize=15;entryX=0;entryY=0.5;entryDx=0;entryDy=0;exitX=1;exitY=0;exitDx=0;exitDy=0;endFill=0;" parent="1" source="uzTgU-yGPW_uOpuA6TY6-185" target="uzTgU-yGPW_uOpuA6TY6-50" edge="1">
          <mxGeometry width="50" height="50" relative="1" as="geometry">
            <mxPoint x="1310" y="-27.5" as="sourcePoint" />
            <mxPoint x="1100" y="67.49999999999977" as="targetPoint" />
          </mxGeometry>
        </mxCell>
        <mxCell id="uzTgU-yGPW_uOpuA6TY6-188" value="có" style="rhombus;whiteSpace=wrap;html=1;fontSize=15;" parent="1" vertex="1">
          <mxGeometry x="1150" y="30" width="80" height="80" as="geometry" />
        </mxCell>
        <mxCell id="uzTgU-yGPW_uOpuA6TY6-189" value="" style="endArrow=ERoneToMany;html=1;rounded=0;fontSize=15;endFill=0;exitX=0.25;exitY=0.188;exitDx=0;exitDy=0;entryX=1;entryY=0;entryDx=0;entryDy=0;exitPerimeter=0;" parent="1" source="uzTgU-yGPW_uOpuA6TY6-188" target="uzTgU-yGPW_uOpuA6TY6-165" edge="1">
          <mxGeometry width="50" height="50" relative="1" as="geometry">
            <mxPoint x="1140" y="112.5" as="sourcePoint" />
            <mxPoint x="1200" y="177.5" as="targetPoint" />
          </mxGeometry>
        </mxCell>
        <mxCell id="uzTgU-yGPW_uOpuA6TY6-190" value="" style="endArrow=ERmandOne;html=1;rounded=0;fontSize=15;entryX=1;entryY=0.5;entryDx=0;entryDy=0;exitX=0;exitY=1;exitDx=0;exitDy=0;endFill=0;" parent="1" source="uzTgU-yGPW_uOpuA6TY6-188" target="uzTgU-yGPW_uOpuA6TY6-165" edge="1">
          <mxGeometry width="50" height="50" relative="1" as="geometry">
            <mxPoint x="1487.3599999999997" y="310.29999999999995" as="sourcePoint" />
            <mxPoint x="1230" y="317.5" as="targetPoint" />
          </mxGeometry>
        </mxCell>
        <mxCell id="uzTgU-yGPW_uOpuA6TY6-191" value="created_at" style="ellipse;whiteSpace=wrap;html=1;fontSize=15;" parent="1" vertex="1">
          <mxGeometry x="1030" y="-57.5" width="120" height="60" as="geometry" />
        </mxCell>
        <mxCell id="uzTgU-yGPW_uOpuA6TY6-192" value="" style="endArrow=none;html=1;rounded=0;fontSize=15;entryX=0.217;entryY=0.943;entryDx=0;entryDy=0;entryPerimeter=0;exitX=0.613;exitY=0.007;exitDx=0;exitDy=0;exitPerimeter=0;" parent="1" source="uzTgU-yGPW_uOpuA6TY6-165" target="uzTgU-yGPW_uOpuA6TY6-191" edge="1">
          <mxGeometry width="50" height="50" relative="1" as="geometry">
            <mxPoint x="1020" y="122.5" as="sourcePoint" />
            <mxPoint x="1340" y="182.5" as="targetPoint" />
          </mxGeometry>
        </mxCell>
        <mxCell id="uzTgU-yGPW_uOpuA6TY6-193" value="file" style="rounded=1;whiteSpace=wrap;html=1;fontSize=15;" parent="1" vertex="1">
          <mxGeometry x="1485" y="335" width="120" height="60" as="geometry" />
        </mxCell>
        <mxCell id="uzTgU-yGPW_uOpuA6TY6-194" value="id" style="ellipse;whiteSpace=wrap;html=1;fontSize=15;" parent="1" vertex="1">
          <mxGeometry x="1415" y="177.5" width="120" height="60" as="geometry" />
        </mxCell>
        <mxCell id="uzTgU-yGPW_uOpuA6TY6-195" value="source" style="ellipse;whiteSpace=wrap;html=1;fontSize=15;" parent="1" vertex="1">
          <mxGeometry x="1555" y="165" width="120" height="60" as="geometry" />
        </mxCell>
        <mxCell id="uzTgU-yGPW_uOpuA6TY6-197" value="size" style="ellipse;whiteSpace=wrap;html=1;fontSize=15;" parent="1" vertex="1">
          <mxGeometry x="1615" y="230" width="120" height="60" as="geometry" />
        </mxCell>
        <mxCell id="uzTgU-yGPW_uOpuA6TY6-198" value="created-at" style="ellipse;whiteSpace=wrap;html=1;fontSize=15;" parent="1" vertex="1">
          <mxGeometry x="1695" y="360" width="120" height="60" as="geometry" />
        </mxCell>
        <mxCell id="uzTgU-yGPW_uOpuA6TY6-199" value="" style="endArrow=none;html=1;rounded=0;fontSize=15;exitX=1;exitY=0.5;exitDx=0;exitDy=0;entryX=0;entryY=0.5;entryDx=0;entryDy=0;" parent="1" source="uzTgU-yGPW_uOpuA6TY6-193" target="uzTgU-yGPW_uOpuA6TY6-198" edge="1">
          <mxGeometry width="50" height="50" relative="1" as="geometry">
            <mxPoint x="1635" y="315" as="sourcePoint" />
            <mxPoint x="1685" y="265" as="targetPoint" />
          </mxGeometry>
        </mxCell>
        <mxCell id="uzTgU-yGPW_uOpuA6TY6-200" value="" style="endArrow=none;html=1;rounded=0;fontSize=15;exitX=0.798;exitY=0.004;exitDx=0;exitDy=0;exitPerimeter=0;entryX=0.217;entryY=0.943;entryDx=0;entryDy=0;entryPerimeter=0;" parent="1" source="uzTgU-yGPW_uOpuA6TY6-193" target="uzTgU-yGPW_uOpuA6TY6-197" edge="1">
          <mxGeometry width="50" height="50" relative="1" as="geometry">
            <mxPoint x="1705" y="405" as="sourcePoint" />
            <mxPoint x="1765" y="415" as="targetPoint" />
          </mxGeometry>
        </mxCell>
        <mxCell id="uzTgU-yGPW_uOpuA6TY6-201" value="" style="endArrow=none;html=1;rounded=0;fontSize=15;entryX=0.389;entryY=0.986;entryDx=0;entryDy=0;entryPerimeter=0;" parent="1" target="uzTgU-yGPW_uOpuA6TY6-195" edge="1">
          <mxGeometry width="50" height="50" relative="1" as="geometry">
            <mxPoint x="1555" y="330" as="sourcePoint" />
            <mxPoint x="1621.04" y="311.58000000000015" as="targetPoint" />
          </mxGeometry>
        </mxCell>
        <mxCell id="uzTgU-yGPW_uOpuA6TY6-202" value="" style="endArrow=none;html=1;rounded=0;fontSize=15;entryX=0.55;entryY=1.012;entryDx=0;entryDy=0;entryPerimeter=0;" parent="1" target="uzTgU-yGPW_uOpuA6TY6-194" edge="1">
          <mxGeometry width="50" height="50" relative="1" as="geometry">
            <mxPoint x="1525" y="330" as="sourcePoint" />
            <mxPoint x="1631.04" y="321.58000000000015" as="targetPoint" />
          </mxGeometry>
        </mxCell>
        <mxCell id="uzTgU-yGPW_uOpuA6TY6-204" value="có" style="rhombus;whiteSpace=wrap;html=1;fontSize=15;" parent="1" vertex="1">
          <mxGeometry x="1285" y="230" width="80" height="80" as="geometry" />
        </mxCell>
        <mxCell id="uzTgU-yGPW_uOpuA6TY6-205" value="" style="endArrow=ERmandOne;html=1;rounded=0;fontSize=15;entryX=0.669;entryY=1.107;entryDx=0;entryDy=0;exitX=0;exitY=0;exitDx=0;exitDy=0;endFill=0;entryPerimeter=0;" parent="1" source="uzTgU-yGPW_uOpuA6TY6-204" target="uzTgU-yGPW_uOpuA6TY6-165" edge="1">
          <mxGeometry width="50" height="50" relative="1" as="geometry">
            <mxPoint x="1409.9999999999995" y="-2.5" as="sourcePoint" />
            <mxPoint x="1299.9999999999995" y="110" as="targetPoint" />
          </mxGeometry>
        </mxCell>
        <mxCell id="uzTgU-yGPW_uOpuA6TY6-206" value="" style="endArrow=ERoneToMany;html=1;rounded=0;fontSize=15;entryX=0;entryY=0;entryDx=0;entryDy=0;endFill=0;exitX=1;exitY=1;exitDx=0;exitDy=0;" parent="1" source="uzTgU-yGPW_uOpuA6TY6-204" target="uzTgU-yGPW_uOpuA6TY6-193" edge="1">
          <mxGeometry width="50" height="50" relative="1" as="geometry">
            <mxPoint x="1344.9999999999995" y="107.5" as="sourcePoint" />
            <mxPoint x="1174.9999999999995" y="175" as="targetPoint" />
          </mxGeometry>
        </mxCell>
        <mxCell id="uzTgU-yGPW_uOpuA6TY6-208" value="schedule" style="rounded=1;whiteSpace=wrap;html=1;fontSize=15;" parent="1" vertex="1">
          <mxGeometry x="795" y="405" width="120" height="60" as="geometry" />
        </mxCell>
        <mxCell id="uzTgU-yGPW_uOpuA6TY6-209" value="id" style="ellipse;whiteSpace=wrap;html=1;fontSize=15;" parent="1" vertex="1">
          <mxGeometry x="670" y="495" width="120" height="60" as="geometry" />
        </mxCell>
        <mxCell id="uzTgU-yGPW_uOpuA6TY6-210" value="date" style="ellipse;whiteSpace=wrap;html=1;fontSize=15;" parent="1" vertex="1">
          <mxGeometry x="790" y="560" width="120" height="60" as="geometry" />
        </mxCell>
        <mxCell id="uzTgU-yGPW_uOpuA6TY6-215" value="" style="endArrow=none;html=1;rounded=0;fontSize=15;entryX=0.5;entryY=0;entryDx=0;entryDy=0;exitX=0.5;exitY=1;exitDx=0;exitDy=0;" parent="1" source="uzTgU-yGPW_uOpuA6TY6-208" target="uzTgU-yGPW_uOpuA6TY6-210" edge="1">
          <mxGeometry width="50" height="50" relative="1" as="geometry">
            <mxPoint x="865.0000000000005" y="400" as="sourcePoint" />
            <mxPoint x="931.04" y="381.58000000000015" as="targetPoint" />
          </mxGeometry>
        </mxCell>
        <mxCell id="uzTgU-yGPW_uOpuA6TY6-216" value="" style="endArrow=none;html=1;rounded=0;fontSize=15;entryX=0.5;entryY=0;entryDx=0;entryDy=0;" parent="1" target="uzTgU-yGPW_uOpuA6TY6-209" edge="1">
          <mxGeometry width="50" height="50" relative="1" as="geometry">
            <mxPoint x="795" y="455" as="sourcePoint" />
            <mxPoint x="941.04" y="391.58000000000015" as="targetPoint" />
          </mxGeometry>
        </mxCell>
        <mxCell id="uzTgU-yGPW_uOpuA6TY6-217" value="period" style="rounded=1;whiteSpace=wrap;html=1;fontSize=15;" parent="1" vertex="1">
          <mxGeometry x="1095" y="530" width="120" height="60" as="geometry" />
        </mxCell>
        <mxCell id="uzTgU-yGPW_uOpuA6TY6-218" value="id" style="ellipse;whiteSpace=wrap;html=1;fontSize=15;" parent="1" vertex="1">
          <mxGeometry x="1025" y="372.5" width="120" height="60" as="geometry" />
        </mxCell>
        <mxCell id="uzTgU-yGPW_uOpuA6TY6-219" value="started_at" style="ellipse;whiteSpace=wrap;html=1;fontSize=15;" parent="1" vertex="1">
          <mxGeometry x="1260" y="432.5" width="120" height="60" as="geometry" />
        </mxCell>
        <mxCell id="uzTgU-yGPW_uOpuA6TY6-220" value="" style="endArrow=none;html=1;rounded=0;fontSize=15;entryX=0.389;entryY=0.986;entryDx=0;entryDy=0;entryPerimeter=0;exitX=1;exitY=0;exitDx=0;exitDy=0;" parent="1" source="uzTgU-yGPW_uOpuA6TY6-217" target="uzTgU-yGPW_uOpuA6TY6-219" edge="1">
          <mxGeometry width="50" height="50" relative="1" as="geometry">
            <mxPoint x="1165.0000000000005" y="525" as="sourcePoint" />
            <mxPoint x="1231.04" y="506.58000000000015" as="targetPoint" />
          </mxGeometry>
        </mxCell>
        <mxCell id="uzTgU-yGPW_uOpuA6TY6-221" value="" style="endArrow=none;html=1;rounded=0;fontSize=15;entryX=0.55;entryY=1.012;entryDx=0;entryDy=0;entryPerimeter=0;" parent="1" target="uzTgU-yGPW_uOpuA6TY6-218" edge="1">
          <mxGeometry width="50" height="50" relative="1" as="geometry">
            <mxPoint x="1135.0000000000005" y="525" as="sourcePoint" />
            <mxPoint x="1241.04" y="516.5800000000002" as="targetPoint" />
          </mxGeometry>
        </mxCell>
        <mxCell id="uzTgU-yGPW_uOpuA6TY6-222" value="period" style="ellipse;whiteSpace=wrap;html=1;fontSize=15;" parent="1" vertex="1">
          <mxGeometry x="1165" y="365" width="120" height="60" as="geometry" />
        </mxCell>
        <mxCell id="uzTgU-yGPW_uOpuA6TY6-223" value="" style="endArrow=none;html=1;rounded=0;fontSize=15;entryX=0.389;entryY=0.986;entryDx=0;entryDy=0;entryPerimeter=0;exitX=0.561;exitY=0.017;exitDx=0;exitDy=0;exitPerimeter=0;" parent="1" source="uzTgU-yGPW_uOpuA6TY6-217" target="uzTgU-yGPW_uOpuA6TY6-222" edge="1">
          <mxGeometry width="50" height="50" relative="1" as="geometry">
            <mxPoint x="1130" y="505" as="sourcePoint" />
            <mxPoint x="1146.04" y="481.58000000000015" as="targetPoint" />
          </mxGeometry>
        </mxCell>
        <mxCell id="uzTgU-yGPW_uOpuA6TY6-224" value="có" style="rhombus;whiteSpace=wrap;html=1;fontSize=15;" parent="1" vertex="1">
          <mxGeometry x="955" y="465" width="80" height="80" as="geometry" />
        </mxCell>
        <mxCell id="uzTgU-yGPW_uOpuA6TY6-225" value="" style="endArrow=ERoneToMany;html=1;rounded=0;fontSize=15;entryX=1.011;entryY=0.94;entryDx=0;entryDy=0;endFill=0;exitX=0;exitY=0;exitDx=0;exitDy=0;entryPerimeter=0;" parent="1" source="uzTgU-yGPW_uOpuA6TY6-224" target="uzTgU-yGPW_uOpuA6TY6-208" edge="1">
          <mxGeometry width="50" height="50" relative="1" as="geometry">
            <mxPoint x="1175" y="237.5" as="sourcePoint" />
            <mxPoint x="1315" y="282.5" as="targetPoint" />
          </mxGeometry>
        </mxCell>
        <mxCell id="uzTgU-yGPW_uOpuA6TY6-226" value="" style="endArrow=ERmandOne;html=1;rounded=0;fontSize=15;entryX=0;entryY=0.5;entryDx=0;entryDy=0;endFill=0;exitX=1;exitY=1;exitDx=0;exitDy=0;" parent="1" source="uzTgU-yGPW_uOpuA6TY6-224" target="uzTgU-yGPW_uOpuA6TY6-217" edge="1">
          <mxGeometry width="50" height="50" relative="1" as="geometry">
            <mxPoint x="945" y="475" as="sourcePoint" />
            <mxPoint x="955.2800000000002" y="118.92000000000007" as="targetPoint" />
          </mxGeometry>
        </mxCell>
        <mxCell id="uzTgU-yGPW_uOpuA6TY6-227" value="có" style="rhombus;whiteSpace=wrap;html=1;fontSize=15;" parent="1" vertex="1">
          <mxGeometry x="660" y="250" width="80" height="80" as="geometry" />
        </mxCell>
        <mxCell id="uzTgU-yGPW_uOpuA6TY6-228" value="" style="endArrow=ERoneToMany;html=1;rounded=0;fontSize=15;entryX=0;entryY=0;entryDx=0;entryDy=0;endFill=0;exitX=1;exitY=1;exitDx=0;exitDy=0;" parent="1" source="uzTgU-yGPW_uOpuA6TY6-227" target="uzTgU-yGPW_uOpuA6TY6-208" edge="1">
          <mxGeometry width="50" height="50" relative="1" as="geometry">
            <mxPoint x="850" y="190" as="sourcePoint" />
            <mxPoint x="950" y="197.5" as="targetPoint" />
          </mxGeometry>
        </mxCell>
        <mxCell id="uzTgU-yGPW_uOpuA6TY6-229" value="" style="endArrow=ERoneToMany;html=1;rounded=0;fontSize=15;entryX=0.75;entryY=1;entryDx=0;entryDy=0;endFill=0;exitX=0;exitY=0;exitDx=0;exitDy=0;" parent="1" source="uzTgU-yGPW_uOpuA6TY6-227" target="uzTgU-yGPW_uOpuA6TY6-1" edge="1">
          <mxGeometry width="50" height="50" relative="1" as="geometry">
            <mxPoint x="860" y="200" as="sourcePoint" />
            <mxPoint x="960" y="207.5" as="targetPoint" />
          </mxGeometry>
        </mxCell>
        <mxCell id="uzTgU-yGPW_uOpuA6TY6-231" value="is_check_in" style="ellipse;whiteSpace=wrap;html=1;fontSize=15;" parent="1" vertex="1">
          <mxGeometry x="800" y="260" width="120" height="60" as="geometry" />
        </mxCell>
        <mxCell id="uzTgU-yGPW_uOpuA6TY6-232" value="" style="endArrow=none;html=1;rounded=0;fontSize=15;entryX=1;entryY=0.5;entryDx=0;entryDy=0;exitX=0;exitY=0.5;exitDx=0;exitDy=0;" parent="1" source="uzTgU-yGPW_uOpuA6TY6-231" target="uzTgU-yGPW_uOpuA6TY6-227" edge="1">
          <mxGeometry width="50" height="50" relative="1" as="geometry">
            <mxPoint x="805" y="465" as="sourcePoint" />
            <mxPoint x="740" y="505" as="targetPoint" />
          </mxGeometry>
        </mxCell>
      </root>
    </mxGraphModel>
  </diagram>
</mxfile>
